<?xml version="1.0" standalone="no"?>
<!DOCTYPE svg PUBLIC "-//W3C//DTD SVG 20010904//EN"
 "http://www.w3.org/TR/2001/REC-SVG-20010904/DTD/svg10.dtd">
<svg version="1.0" xmlns="http://www.w3.org/2000/svg"
 width="260.000000pt" height="260.000000pt" viewBox="0 0 260.000000 260.000000"
 preserveAspectRatio="xMidYMid meet">
<metadata>
Created by potrace 1.14, written by Peter Selinger 2001-2017
</metadata>
<g transform="translate(0.000000,260.000000) scale(0.100000,-0.100000)"
fill="#000000" stroke="none">
<path d="M0 1300 l0 -1300 1300 0 1300 0 0 1300 0 1300 -1300 0 -1300 0 0
-1300z m1075 475 l0 -90 -317 -3 -318 -2 0 -175 0 -175 283 -2 282 -3 0 -90 0
-90 -282 -3 -283 -2 0 -225 0 -225 -105 0 -105 0 0 590 0 590 423 -2 422 -3 0
-90z m897 66 c235 -60 395 -225 444 -454 68 -325 -125 -629 -451 -712 -89 -23
-263 -20 -355 6 -208 57 -365 210 -426 414 -25 82 -25 248 0 330 45 152 158
291 293 363 135 71 337 93 495 53z"/>
<path d="M1654 1649 c-113 -39 -202 -125 -245 -236 -31 -82 -31 -224 0 -306
66 -170 219 -265 409 -255 124 7 191 35 267 112 71 71 100 128 117 226 32 188
-73 386 -240 451 -84 33 -226 36 -308 8z"/>
</g>
</svg>
